<?xml version="1.0" encoding="UTF-8" standalone="no"?>
<!DOCTYPE svg PUBLIC "-//W3C//DTD SVG 1.1//EN"
 "http://www.w3.org/Graphics/SVG/1.1/DTD/svg11.dtd">
<!-- Generated by graphviz version 12.2.1 (20241206.2353)
 -->
<!-- Pages: 1 -->
<svg width="633pt" height="321pt"
 viewBox="0.00 0.00 632.75 320.50" xmlns="http://www.w3.org/2000/svg" xmlns:xlink="http://www.w3.org/1999/xlink">
<g id="graph0" class="graph" transform="scale(1 1) rotate(0) translate(4 316.5)">
<polygon fill="white" stroke="none" points="-4,4 -4,-316.5 628.75,-316.5 628.75,4 -4,4"/>
<!-- 4342149856 -->
<g id="node1" class="node">
<title>4342149856</title>
<polygon fill="#e3f2fd" stroke="#2196f3" points="313.88,-312.5 239.38,-270 313.87,-227.5 388.38,-270 313.88,-312.5"/>
<text text-anchor="middle" x="313.88" y="-273" font-family="Times,serif" font-size="15.00">outlook</text>
<text text-anchor="middle" x="313.88" y="-255.75" font-family="Times,serif" font-size="15.00">(discrete)</text>
</g>
<!-- 4345117280 -->
<g id="node2" class="node">
<title>4345117280</title>
<polygon fill="#e3f2fd" stroke="#2196f3" points="129.88,-174.25 53.13,-131.75 129.87,-89.25 206.62,-131.75 129.88,-174.25"/>
<text text-anchor="middle" x="129.88" y="-134.75" font-family="Times,serif" font-size="15.00">humidity</text>
<text text-anchor="middle" x="129.88" y="-117.5" font-family="Times,serif" font-size="15.00">&lt;= 77.50?</text>
</g>
<!-- 4342149856&#45;&gt;4345117280 -->
<g id="edge1" class="edge">
<title>4342149856&#45;&gt;4345117280</title>
<path fill="none" stroke="black" d="M281.82,-245.27C251.14,-222.55 204.71,-188.16 171.25,-163.38"/>
<polygon fill="black" stroke="black" points="173.51,-160.71 163.39,-157.57 169.35,-166.33 173.51,-160.71"/>
<text text-anchor="middle" x="252.02" y="-195.25" font-family="Times,serif" font-size="15.00">Sunny</text>
</g>
<!-- 4345118000 -->
<g id="node5" class="node">
<title>4345118000</title>
<polygon fill="#e8f5e8" stroke="#4caf50" points="359.75,-149.75 268,-149.75 268,-113.75 359.75,-113.75 359.75,-149.75"/>
<text text-anchor="middle" x="313.88" y="-126.12" font-family="Times,serif" font-size="15.00">Class = Play</text>
</g>
<!-- 4342149856&#45;&gt;4345118000 -->
<g id="edge4" class="edge">
<title>4342149856&#45;&gt;4345118000</title>
<path fill="none" stroke="black" d="M313.88,-227.01C313.88,-205.84 313.88,-180.71 313.88,-161.72"/>
<polygon fill="black" stroke="black" points="317.38,-161.75 313.88,-151.75 310.38,-161.75 317.38,-161.75"/>
<text text-anchor="middle" x="340.88" y="-195.25" font-family="Times,serif" font-size="15.00">Overcast</text>
</g>
<!-- 4345116800 -->
<g id="node6" class="node">
<title>4345116800</title>
<polygon fill="#e3f2fd" stroke="#2196f3" points="494.88,-174.25 420.38,-131.75 494.87,-89.25 569.38,-131.75 494.88,-174.25"/>
<text text-anchor="middle" x="494.88" y="-134.75" font-family="Times,serif" font-size="15.00">windy</text>
<text text-anchor="middle" x="494.88" y="-117.5" font-family="Times,serif" font-size="15.00">(discrete)</text>
</g>
<!-- 4342149856&#45;&gt;4345116800 -->
<g id="edge5" class="edge">
<title>4342149856&#45;&gt;4345116800</title>
<path fill="none" stroke="black" d="M345.4,-245.27C375.58,-222.55 421.26,-188.16 454.18,-163.38"/>
<polygon fill="black" stroke="black" points="456.01,-166.39 461.89,-157.58 451.8,-160.8 456.01,-166.39"/>
<text text-anchor="middle" x="429.46" y="-195.25" font-family="Times,serif" font-size="15.00">Rain</text>
</g>
<!-- 4345116896 -->
<g id="node3" class="node">
<title>4345116896</title>
<polygon fill="#e8f5e8" stroke="#4caf50" points="91.75,-36 0,-36 0,0 91.75,0 91.75,-36"/>
<text text-anchor="middle" x="45.88" y="-12.38" font-family="Times,serif" font-size="15.00">Class = Play</text>
</g>
<!-- 4345117280&#45;&gt;4345116896 -->
<g id="edge2" class="edge">
<title>4345117280&#45;&gt;4345116896</title>
<path fill="none" stroke="black" d="M107.59,-101.1C94.46,-83.64 78.02,-61.76 65.41,-44.98"/>
<polygon fill="black" stroke="black" points="68.55,-43.35 59.75,-37.46 62.96,-47.55 68.55,-43.35"/>
<text text-anchor="middle" x="109.85" y="-57" font-family="Times,serif" font-size="15.00">&lt;= 77.50</text>
</g>
<!-- 4345118480 -->
<g id="node4" class="node">
<title>4345118480</title>
<polygon fill="#e8f5e8" stroke="#4caf50" points="280.75,-36 153,-36 153,0 280.75,0 280.75,-36"/>
<text text-anchor="middle" x="216.88" y="-12.38" font-family="Times,serif" font-size="15.00">Class = Don&#39;t play</text>
</g>
<!-- 4345117280&#45;&gt;4345118480 -->
<g id="edge3" class="edge">
<title>4345117280&#45;&gt;4345118480</title>
<path fill="none" stroke="black" d="M152.73,-101.39C166.33,-83.93 183.42,-61.97 196.54,-45.12"/>
<polygon fill="black" stroke="black" points="199.07,-47.57 202.45,-37.53 193.54,-43.27 199.07,-47.57"/>
<text text-anchor="middle" x="211.61" y="-57" font-family="Times,serif" font-size="15.00">&gt; 77.50</text>
</g>
<!-- 4345118576 -->
<g id="node7" class="node">
<title>4345118576</title>
<polygon fill="#e8f5e8" stroke="#4caf50" points="471.75,-36 344,-36 344,0 471.75,0 471.75,-36"/>
<text text-anchor="middle" x="407.88" y="-12.38" font-family="Times,serif" font-size="15.00">Class = Don&#39;t play</text>
</g>
<!-- 4345116800&#45;&gt;4345118576 -->
<g id="edge6" class="edge">
<title>4345116800&#45;&gt;4345118576</title>
<path fill="none" stroke="black" d="M472.24,-101.68C458.65,-84.22 441.49,-62.18 428.31,-45.25"/>
<polygon fill="black" stroke="black" points="431.28,-43.37 422.37,-37.62 425.76,-47.67 431.28,-43.37"/>
<text text-anchor="middle" x="460.04" y="-57" font-family="Times,serif" font-size="15.00">True</text>
</g>
<!-- 4345118672 -->
<g id="node8" class="node">
<title>4345118672</title>
<polygon fill="#e8f5e8" stroke="#4caf50" points="624.75,-36 533,-36 533,0 624.75,0 624.75,-36"/>
<text text-anchor="middle" x="578.88" y="-12.38" font-family="Times,serif" font-size="15.00">Class = Play</text>
</g>
<!-- 4345116800&#45;&gt;4345118672 -->
<g id="edge7" class="edge">
<title>4345116800&#45;&gt;4345118672</title>
<path fill="none" stroke="black" d="M516.95,-101.39C530.07,-83.93 546.57,-61.97 559.24,-45.12"/>
<polygon fill="black" stroke="black" points="561.72,-47.64 564.93,-37.55 556.13,-43.44 561.72,-47.64"/>
<text text-anchor="middle" x="567.83" y="-57" font-family="Times,serif" font-size="15.00">False</text>
</g>
</g>
</svg>
