<?xml version="1.0" encoding="UTF-8" standalone="no"?>
<!DOCTYPE svg PUBLIC "-//W3C//DTD SVG 1.1//EN"
 "http://www.w3.org/Graphics/SVG/1.1/DTD/svg11.dtd">
<!-- Generated by graphviz version 12.2.1 (20241206.2353)
 -->
<!-- Pages: 1 -->
<svg width="922pt" height="597pt"
 viewBox="0.00 0.00 921.75 597.00" xmlns="http://www.w3.org/2000/svg" xmlns:xlink="http://www.w3.org/1999/xlink">
<g id="graph0" class="graph" transform="scale(1 1) rotate(0) translate(4 593)">
<polygon fill="white" stroke="none" points="-4,4 -4,-593 917.75,-593 917.75,4 -4,4"/>
<!-- 4340976464 -->
<g id="node1" class="node">
<title>4340976464</title>
<polygon fill="#e3f2fd" stroke="#2196f3" points="371.25,-589 287,-546.5 371.25,-504 455.5,-546.5 371.25,-589"/>
<text text-anchor="middle" x="371.25" y="-549.5" font-family="Times,serif" font-size="15.00">petal width</text>
<text text-anchor="middle" x="371.25" y="-532.25" font-family="Times,serif" font-size="15.00">&lt;= 0.80?</text>
</g>
<!-- 4342149472 -->
<g id="node2" class="node">
<title>4342149472</title>
<polygon fill="#e8f5e8" stroke="#4caf50" points="379.5,-426.25 251,-426.25 251,-390.25 379.5,-390.25 379.5,-426.25"/>
<text text-anchor="middle" x="315.25" y="-402.62" font-family="Times,serif" font-size="15.00">Class = Iris&#45;setosa</text>
</g>
<!-- 4340976464&#45;&gt;4342149472 -->
<g id="edge1" class="edge">
<title>4340976464&#45;&gt;4342149472</title>
<path fill="none" stroke="black" d="M356.97,-510.77C347.58,-487.91 335.45,-458.39 326.69,-437.08"/>
<polygon fill="black" stroke="black" points="329.94,-435.79 322.9,-427.87 323.47,-438.45 329.94,-435.79"/>
<text text-anchor="middle" x="369.85" y="-471.75" font-family="Times,serif" font-size="15.00">&lt;= 0.80</text>
</g>
<!-- 4342149376 -->
<g id="node3" class="node">
<title>4342149376</title>
<polygon fill="#e3f2fd" stroke="#2196f3" points="528.25,-450.75 440.25,-408.25 528.25,-365.75 616.25,-408.25 528.25,-450.75"/>
<text text-anchor="middle" x="528.25" y="-411.25" font-family="Times,serif" font-size="15.00">petal length</text>
<text text-anchor="middle" x="528.25" y="-394" font-family="Times,serif" font-size="15.00">&lt;= 4.75?</text>
</g>
<!-- 4340976464&#45;&gt;4342149376 -->
<g id="edge2" class="edge">
<title>4340976464&#45;&gt;4342149376</title>
<path fill="none" stroke="black" d="M401.89,-518.91C426.7,-497.38 461.8,-466.92 488.72,-443.56"/>
<polygon fill="black" stroke="black" points="490.75,-446.43 496,-437.23 486.16,-441.15 490.75,-446.43"/>
<text text-anchor="middle" x="478.27" y="-471.75" font-family="Times,serif" font-size="15.00">&gt; 0.80</text>
</g>
<!-- 4345116992 -->
<g id="node4" class="node">
<title>4345116992</title>
<polygon fill="#e3f2fd" stroke="#2196f3" points="392.25,-312.5 302.75,-270 392.25,-227.5 481.75,-270 392.25,-312.5"/>
<text text-anchor="middle" x="392.25" y="-273" font-family="Times,serif" font-size="15.00">sepal length</text>
<text text-anchor="middle" x="392.25" y="-255.75" font-family="Times,serif" font-size="15.00">&lt;= 4.95?</text>
</g>
<!-- 4342149376&#45;&gt;4345116992 -->
<g id="edge3" class="edge">
<title>4342149376&#45;&gt;4345116992</title>
<path fill="none" stroke="black" d="M500.07,-379.02C479.28,-358.19 450.83,-329.69 428.37,-307.19"/>
<polygon fill="black" stroke="black" points="431,-304.87 421.46,-300.27 426.05,-309.82 431,-304.87"/>
<text text-anchor="middle" x="491.64" y="-333.5" font-family="Times,serif" font-size="15.00">&lt;= 4.75</text>
</g>
<!-- 4345117088 -->
<g id="node9" class="node">
<title>4345117088</title>
<polygon fill="#e3f2fd" stroke="#2196f3" points="632.25,-312.5 542.75,-270 632.25,-227.5 721.75,-270 632.25,-312.5"/>
<text text-anchor="middle" x="632.25" y="-273" font-family="Times,serif" font-size="15.00">sepal length</text>
<text text-anchor="middle" x="632.25" y="-255.75" font-family="Times,serif" font-size="15.00">&lt;= 7.00?</text>
</g>
<!-- 4342149376&#45;&gt;4345117088 -->
<g id="edge8" class="edge">
<title>4342149376&#45;&gt;4345117088</title>
<path fill="none" stroke="black" d="M551.59,-376.67C566.51,-357.13 586.01,-331.58 602.1,-310.5"/>
<polygon fill="black" stroke="black" points="604.78,-312.75 608.07,-302.68 599.22,-308.5 604.78,-312.75"/>
<text text-anchor="middle" x="605.6" y="-333.5" font-family="Times,serif" font-size="15.00">&gt; 4.75</text>
</g>
<!-- 4345117328 -->
<g id="node5" class="node">
<title>4345117328</title>
<polygon fill="#e3f2fd" stroke="#2196f3" points="172.25,-174.25 86.5,-131.75 172.25,-89.25 258,-131.75 172.25,-174.25"/>
<text text-anchor="middle" x="172.25" y="-134.75" font-family="Times,serif" font-size="15.00">sepal width</text>
<text text-anchor="middle" x="172.25" y="-117.5" font-family="Times,serif" font-size="15.00">&lt;= 2.45?</text>
</g>
<!-- 4345116992&#45;&gt;4345117328 -->
<g id="edge4" class="edge">
<title>4345116992&#45;&gt;4345117328</title>
<path fill="none" stroke="black" d="M353.93,-245.27C316.51,-222.09 259.49,-186.78 219.33,-161.91"/>
<polygon fill="black" stroke="black" points="221.4,-159.07 211.05,-156.78 217.71,-165.02 221.4,-159.07"/>
<text text-anchor="middle" x="318.67" y="-195.25" font-family="Times,serif" font-size="15.00">&lt;= 4.95</text>
</g>
<!-- 4345117472 -->
<g id="node8" class="node">
<title>4345117472</title>
<polygon fill="#e8f5e8" stroke="#4caf50" points="471.5,-149.75 319,-149.75 319,-113.75 471.5,-113.75 471.5,-149.75"/>
<text text-anchor="middle" x="395.25" y="-126.12" font-family="Times,serif" font-size="15.00">Class = Iris&#45;versicolor</text>
</g>
<!-- 4345116992&#45;&gt;4345117472 -->
<g id="edge7" class="edge">
<title>4345116992&#45;&gt;4345117472</title>
<path fill="none" stroke="black" d="M393.16,-227.75C393.63,-206.32 394.2,-180.66 394.62,-161.41"/>
<polygon fill="black" stroke="black" points="398.11,-161.67 394.84,-151.59 391.12,-161.51 398.11,-161.67"/>
<text text-anchor="middle" x="413.05" y="-195.25" font-family="Times,serif" font-size="15.00">&gt; 4.95</text>
</g>
<!-- 4345117664 -->
<g id="node6" class="node">
<title>4345117664</title>
<polygon fill="#e8f5e8" stroke="#4caf50" points="152.5,-36 0,-36 0,0 152.5,0 152.5,-36"/>
<text text-anchor="middle" x="76.25" y="-12.38" font-family="Times,serif" font-size="15.00">Class = Iris&#45;versicolor</text>
</g>
<!-- 4345117328&#45;&gt;4345117664 -->
<g id="edge5" class="edge">
<title>4345117328&#45;&gt;4345117664</title>
<path fill="none" stroke="black" d="M147.03,-101.39C131.89,-83.77 112.82,-61.57 98.28,-44.65"/>
<polygon fill="black" stroke="black" points="101.3,-42.79 92.13,-37.49 95.99,-47.35 101.3,-42.79"/>
<text text-anchor="middle" x="141.75" y="-57" font-family="Times,serif" font-size="15.00">&lt;= 2.45</text>
</g>
<!-- 4345117760 -->
<g id="node7" class="node">
<title>4345117760</title>
<polygon fill="#e8f5e8" stroke="#4caf50" points="358.75,-36 213.75,-36 213.75,0 358.75,0 358.75,-36"/>
<text text-anchor="middle" x="286.25" y="-12.38" font-family="Times,serif" font-size="15.00">Class = Iris&#45;virginica</text>
</g>
<!-- 4345117328&#45;&gt;4345117760 -->
<g id="edge6" class="edge">
<title>4345117328&#45;&gt;4345117760</title>
<path fill="none" stroke="black" d="M200.72,-102.84C218.97,-84.95 242.48,-61.91 260.23,-44.51"/>
<polygon fill="black" stroke="black" points="262.66,-47.03 267.35,-37.53 257.76,-42.03 262.66,-47.03"/>
<text text-anchor="middle" x="268.5" y="-57" font-family="Times,serif" font-size="15.00">&gt; 2.45</text>
</g>
<!-- 4345117616 -->
<g id="node10" class="node">
<title>4345117616</title>
<polygon fill="#e3f2fd" stroke="#2196f3" points="622.25,-174.25 536.5,-131.75 622.25,-89.25 708,-131.75 622.25,-174.25"/>
<text text-anchor="middle" x="622.25" y="-134.75" font-family="Times,serif" font-size="15.00">sepal width</text>
<text text-anchor="middle" x="622.25" y="-117.5" font-family="Times,serif" font-size="15.00">&lt;= 3.25?</text>
</g>
<!-- 4345117088&#45;&gt;4345117616 -->
<g id="edge9" class="edge">
<title>4345117088&#45;&gt;4345117616</title>
<path fill="none" stroke="black" d="M629.28,-228.49C628.26,-214.62 627.11,-198.92 626.03,-184.3"/>
<polygon fill="black" stroke="black" points="629.53,-184.1 625.31,-174.38 622.55,-184.61 629.53,-184.1"/>
<text text-anchor="middle" x="651.1" y="-195.25" font-family="Times,serif" font-size="15.00">&lt;= 7.00</text>
</g>
<!-- 4345117952 -->
<g id="node13" class="node">
<title>4345117952</title>
<polygon fill="#e8f5e8" stroke="#4caf50" points="913.75,-149.75 768.75,-149.75 768.75,-113.75 913.75,-113.75 913.75,-149.75"/>
<text text-anchor="middle" x="841.25" y="-126.12" font-family="Times,serif" font-size="15.00">Class = Iris&#45;virginica</text>
</g>
<!-- 4345117088&#45;&gt;4345117952 -->
<g id="edge12" class="edge">
<title>4345117088&#45;&gt;4345117952</title>
<path fill="none" stroke="black" d="M669.13,-244.95C707.59,-219.88 767.47,-180.85 805.5,-156.06"/>
<polygon fill="black" stroke="black" points="806.94,-159.3 813.4,-150.9 803.11,-153.43 806.94,-159.3"/>
<text text-anchor="middle" x="768.39" y="-195.25" font-family="Times,serif" font-size="15.00">&gt; 7.00</text>
</g>
<!-- 4345118144 -->
<g id="node11" class="node">
<title>4345118144</title>
<polygon fill="#e8f5e8" stroke="#4caf50" points="583.75,-36 438.75,-36 438.75,0 583.75,0 583.75,-36"/>
<text text-anchor="middle" x="511.25" y="-12.38" font-family="Times,serif" font-size="15.00">Class = Iris&#45;virginica</text>
</g>
<!-- 4345117616&#45;&gt;4345118144 -->
<g id="edge10" class="edge">
<title>4345117616&#45;&gt;4345118144</title>
<path fill="none" stroke="black" d="M594.53,-102.84C576.76,-84.95 553.87,-61.91 536.59,-44.51"/>
<polygon fill="black" stroke="black" points="539.2,-42.17 529.67,-37.54 534.23,-47.1 539.2,-42.17"/>
<text text-anchor="middle" x="583.35" y="-57" font-family="Times,serif" font-size="15.00">&lt;= 3.25</text>
</g>
<!-- 4345118240 -->
<g id="node12" class="node">
<title>4345118240</title>
<polygon fill="#e8f5e8" stroke="#4caf50" points="789.75,-36 644.75,-36 644.75,0 789.75,0 789.75,-36"/>
<text text-anchor="middle" x="717.25" y="-12.38" font-family="Times,serif" font-size="15.00">Class = Iris&#45;virginica</text>
</g>
<!-- 4345117616&#45;&gt;4345118240 -->
<g id="edge11" class="edge">
<title>4345117616&#45;&gt;4345118240</title>
<path fill="none" stroke="black" d="M647.21,-101.39C662.19,-83.77 681.06,-61.57 695.44,-44.65"/>
<polygon fill="black" stroke="black" points="697.72,-47.38 701.53,-37.49 692.39,-42.84 697.72,-47.38"/>
<text text-anchor="middle" x="705.65" y="-57" font-family="Times,serif" font-size="15.00">&gt; 3.25</text>
</g>
</g>
</svg>
